<?xml version="1.0" encoding="utf-8"?>
<!-- Svg Vector Icons : http://www.onlinewebfonts.com/icon -->
<!DOCTYPE svg PUBLIC "-//W3C//DTD SVG 1.1//EN" "http://www.w3.org/Graphics/SVG/1.1/DTD/svg11.dtd">
<svg version="1.1" xmlns="http://www.w3.org/2000/svg" xmlns:xlink="http://www.w3.org/1999/xlink" x="0px" y="0px" viewBox="0 0 256 256" enable-background="new 0 0 256 256" xml:space="preserve">
<metadata> Svg Vector Icons : http://www.onlinewebfonts.com/icon </metadata>
<g><g><g><path fill="#000000" d="M28.2,9.8c-7,1.9-12.8,6.6-15.9,13.1c-1.9,3.9-1.9,3.9-2.1,13.4L10,45.8h8.3h8.3v-6.5c0-7.7,0.8-10.4,3.7-12.2c1.6-1,2.8-1.1,8.7-1.1h6.9v-8.5V9L38.3,9C34.2,9,29.7,9.4,28.2,9.8z"/><path fill="#000000" d="M60,17.5V26h11.6h11.6v-8.5V9H71.6H60V17.5z"/><path fill="#000000" d="M97.4,17.5V26l11.8-0.1l11.7-0.2l0.2-8.4l0.2-8.3h-12H97.4L97.4,17.5L97.4,17.5z"/><path fill="#000000" d="M134.9,17.3l0.2,8.4l11.8,0.2l11.7,0.1v-8.5V9h-11.9h-12L134.9,17.3z"/><path fill="#000000" d="M172.8,17.5V26h11.6H196v-8.5V9h-11.6h-11.6V17.5z"/><path fill="#000000" d="M210.2,17.5V26h6.9c6,0,7.1,0.2,8.7,1.1c2.8,1.8,3.7,4.5,3.7,12.2v6.5h8.3h8.3l-0.2-9.5c-0.2-9.5-0.2-9.5-2.1-13.4c-3.2-6.6-9.6-11.7-16.5-13.3c-1.4-0.3-5.7-0.6-9.7-0.6h-7.3L210.2,17.5L210.2,17.5z"/><path fill="#000000" d="M10.1,71.6v11.6h8.2h8.2V71.6V60h-8.2h-8.2V71.6z"/><path fill="#000000" d="M229.5,71.6v11.6h8.2h8.2V71.6V60h-8.2h-8.2L229.5,71.6L229.5,71.6z"/><path fill="#000000" d="M153.8,75.9l7.9,7.9l-39,38.9l-38.9,39l-7.9-7.9l-7.9-7.9V167v21.1H89h21.1l-7.9-7.9l-7.9-7.9l39-38.9l38.9-39l7.9,7.9l7.9,7.9V89V67.9H167h-21.1L153.8,75.9z"/><path fill="#000000" d="M28.5,95.9c-7,1.8-13,6.6-16.3,13.2l-1.9,3.9v58.1v58.1l1.9,3.9c3.2,6.6,9.6,11.7,16.5,13.3c1.6,0.4,22.3,0.6,56.9,0.6c47.4,0,54.9-0.1,57.8-0.9c9.3-2.4,16.3-10.2,17.8-20.1c0.7-4.3,0.8-100.9,0.2-100.9c-0.2,0-4,3.6-8.5,8.1l-8,8v41.3c0,45.7,0.1,44-3.6,46.3c-1.7,1-3.9,1.1-55.5,1.1c-52.9,0-53.8,0-55.6-1.1c-3.9-2.4-3.7,0.1-3.7-57.9c0-50.9,0.1-52.3,1.1-54.6c2.2-4.5-0.6-4.3,44.9-4.3H113l8.5-8.5l8.5-8.5l-49.3,0.1C43.4,95.2,30.7,95.4,28.5,95.9z"/><path fill="#000000" d="M229.5,109.3v11.9h8.2h8.2v-11.9V97.4h-8.2h-8.2L229.5,109.3L229.5,109.3z"/><path fill="#000000" d="M229.5,146.7v11.9h8.2h8.2v-11.9v-11.9h-8.2h-8.2L229.5,146.7L229.5,146.7z"/><path fill="#000000" d="M229.5,184.4V196h8.2h8.2v-11.6v-11.6h-8.2h-8.2L229.5,184.4L229.5,184.4z"/><path fill="#000000" d="M229.5,216.8c0,5.4-0.2,7-1.1,9c-1.8,3.7-3.3,4.3-11.3,4.3h-6.9v8.5v8.5h7.3c4,0,8.3-0.3,9.7-0.6c7-1.6,13.3-6.7,16.5-13.3c1.9-3.9,1.9-3.9,2.1-13.4l0.2-9.5h-8.3h-8.3V216.8L229.5,216.8z"/><path fill="#000000" d="M172.8,238.5v8.5h11.6H196v-8.5V230h-11.6h-11.6V238.5z"/></g></g></g>
</svg>